<?xml version="1.0" encoding="UTF-8"?>
<!DOCTYPE svg PUBLIC "-//W3C//DTD SVG 1.1//EN" "http://www.w3.org/Graphics/SVG/1.1/DTD/svg11.dtd">
<svg xmlns="http://www.w3.org/2000/svg" version="1.1" width="500px" height="200px" style="shape-rendering:geometricPrecision; text-rendering:geometricPrecision; image-rendering:optimizeQuality; fill-rule:evenodd; clip-rule:evenodd" xmlns:xlink="http://www.w3.org/1999/xlink">
<g><path style="opacity:0.988" fill="#fdfdfe" d="M 120.5,10.5 C 129.817,10.4363 137.65,13.7696 144,20.5C 168.933,62.7016 193.599,105.035 218,147.5C 224.165,166.374 218.331,179.874 200.5,188C 191.162,189.716 182.496,188.05 174.5,183C 172.343,181.088 170.009,179.421 167.5,178C 144.19,153.024 119.857,129.024 94.5,106C 111.312,101.238 127.312,103.238 142.5,112C 155.159,122.326 166.826,133.66 177.5,146C 178.167,146.667 178.833,146.667 179.5,146C 159.954,113.079 140.788,79.9119 122,46.5C 101.323,82.5229 80.6568,118.523 60,154.5C 49.3257,169.834 35.1591,180.667 17.5,187C 12.5075,187.965 7.50749,188.798 2.5,189.5C 2.16667,189.167 1.83333,188.833 1.5,188.5C 33.7939,134.139 65.6273,79.4727 97,24.5C 102.69,16.0776 110.523,11.411 120.5,10.5 Z"/></g>
<g><path style="opacity:1" fill="#fefffe" d="M 245.5,99.5 C 248.833,99.5 252.167,99.5 255.5,99.5C 255.333,122.169 255.5,144.836 256,167.5C 257.32,172.317 260.486,174.651 265.5,174.5C 265.5,177.5 265.5,180.5 265.5,183.5C 255.423,184.23 248.923,179.896 246,170.5C 245.5,146.836 245.333,123.169 245.5,99.5 Z"/></g>
<g><path style="opacity:1" fill="#fefffe" d="M 336.5,99.5 C 339.833,99.5 343.167,99.5 346.5,99.5C 346.334,108.839 346.5,118.173 347,127.5C 357.769,120.657 368.269,121.157 378.5,129C 388.278,141.292 390.111,154.792 384,169.5C 376.405,181.704 365.571,185.87 351.5,182C 349.336,181.086 347.336,179.919 345.5,178.5C 343.784,182.41 340.784,184.077 336.5,183.5C 336.5,155.5 336.5,127.5 336.5,99.5 Z M 353.5,131.5 C 371.35,132.206 378.85,141.539 376,159.5C 373.315,171.443 365.815,176.276 353.5,174C 351.254,172.961 349.087,171.794 347,170.5C 346.333,158.833 346.333,147.167 347,135.5C 349.314,134.267 351.481,132.933 353.5,131.5 Z"/></g>
<g><path style="opacity:1" fill="#fefffe" d="M 290.5,122.5 C 296.232,122.283 301.899,122.783 307.5,124C 315.157,126.797 319.323,132.297 320,140.5C 320.333,151.167 320.667,161.833 321,172.5C 321.518,175.023 322.852,177.023 325,178.5C 325.494,180.134 325.66,181.801 325.5,183.5C 319.236,184.199 314.57,181.866 311.5,176.5C 302.728,183.767 293.061,185.267 282.5,181C 272.647,171.984 271.98,162.318 280.5,152C 289.156,145.435 298.823,143.268 309.5,145.5C 311.087,138.511 308.421,134.011 301.5,132C 294.052,130.652 287.552,132.486 282,137.5C 280.627,134.588 279.127,131.754 277.5,129C 281.398,125.769 285.731,123.602 290.5,122.5 Z M 297.5,152.5 C 301.833,152.5 306.167,152.5 310.5,152.5C 314.615,166.352 309.615,174.018 295.5,175.5C 285.755,174.677 282.588,169.677 286,160.5C 289.15,156.689 292.983,154.023 297.5,152.5 Z"/></g>
<g><path style="opacity:1" fill="#fefffe" d="M 409.5,122.5 C 417.455,121.656 424.788,123.323 431.5,127.5C 430.48,130.605 429.313,133.605 428,136.5C 421.507,130.432 414.841,130.099 408,135.5C 407.041,139.421 408.208,142.588 411.5,145C 419.385,147.522 426.218,151.689 432,157.5C 435.57,164.365 435.237,171.032 431,177.5C 419.74,185.118 408.24,185.451 396.5,178.5C 397.765,175.204 398.932,171.871 400,168.5C 406.036,173.963 412.869,175.463 420.5,173C 425.103,166.96 424.103,161.96 417.5,158C 410.275,155.807 404.108,151.974 399,146.5C 394.043,134.751 397.543,126.751 409.5,122.5 Z"/></g>
</svg>
