<?xml version="1.0" encoding="UTF-8"?>
<!DOCTYPE svg PUBLIC "-//W3C//DTD SVG 1.1//EN" "http://www.w3.org/Graphics/SVG/1.1/DTD/svg11.dtd">
<svg xmlns="http://www.w3.org/2000/svg" version="1.1" width="500px" height="200px" style="shape-rendering:geometricPrecision; text-rendering:geometricPrecision; image-rendering:optimizeQuality; fill-rule:evenodd; clip-rule:evenodd" xmlns:xlink="http://www.w3.org/1999/xlink">
<g><path style="opacity:0.999" fill="#273fa2" d="M 151.5,34.5 C 147.363,29.0685 142.029,27.5685 135.5,30C 129.544,34.1163 124.878,39.2829 121.5,45.5C 112.871,40.5601 104.204,35.5601 95.5,30.5C 94.8165,30.8627 94.1499,31.1961 93.5,31.5C 101.384,13.7265 114.717,7.55983 133.5,13C 142.442,17.7264 148.442,24.8931 151.5,34.5 Z"/></g>
<g><path style="opacity:1" fill="#131d4b" d="M 151.5,34.5 C 153.853,36.8599 155.853,39.5265 157.5,42.5C 153.869,42.1604 150.536,42.9937 147.5,45C 141.5,49 135.5,53 129.5,57C 130.167,57.3333 130.833,57.6667 131.5,58C 130.584,58.2784 129.918,58.7784 129.5,59.5C 126.833,55.1667 124.167,50.8333 121.5,46.5C 121.5,46.1667 121.5,45.8333 121.5,45.5C 124.878,39.2829 129.544,34.1163 135.5,30C 142.029,27.5685 147.363,29.0685 151.5,34.5 Z"/></g>
<g><path style="opacity:1" fill="#263b99" d="M 121.5,45.5 C 121.5,45.8333 121.5,46.1667 121.5,46.5C 115.931,57.3044 110.098,67.9711 104,78.5C 101.666,82.0161 99.4995,85.6828 97.5,89.5C 97.0431,90.2975 96.3764,90.6309 95.5,90.5C 86.3569,85.7617 77.3569,80.7617 68.5,75.5C 76.0738,60.2945 84.4071,45.6278 93.5,31.5C 94.1499,31.1961 94.8165,30.8627 95.5,30.5C 104.204,35.5601 112.871,40.5601 121.5,45.5 Z"/></g>
<g><path style="opacity:1" fill="#1a2969" d="M 157.5,42.5 C 158.471,44.4832 159.471,46.4832 160.5,48.5C 150.693,52.9023 141.693,58.569 133.5,65.5C 131.684,63.8816 130.351,61.8816 129.5,59.5C 129.918,58.7784 130.584,58.2784 131.5,58C 130.833,57.6667 130.167,57.3333 129.5,57C 135.5,53 141.5,49 147.5,45C 150.536,42.9937 153.869,42.1604 157.5,42.5 Z"/></g>
<g><path style="opacity:0.998" fill="#1f307c" d="M 160.5,48.5 C 161.248,50.3325 162.248,51.9991 163.5,53.5C 155.422,58.0463 147.422,62.8796 139.5,68C 137.937,68.7589 136.937,69.9256 136.5,71.5C 134.992,69.8185 133.992,67.8185 133.5,65.5C 141.693,58.569 150.693,52.9023 160.5,48.5 Z"/></g>
<g><path style="opacity:0.998" fill="#223589" d="M 163.5,53.5 C 164.58,55.9962 165.914,58.3295 167.5,60.5C 157.935,65.3916 148.602,70.7249 139.5,76.5C 138.263,75.0351 137.263,73.3684 136.5,71.5C 136.937,69.9256 137.937,68.7589 139.5,68C 147.422,62.8796 155.422,58.0463 163.5,53.5 Z"/></g>
<g><path style="opacity:0.999" fill="#253a95" d="M 167.5,60.5 C 172.432,68.699 177.099,77.0323 181.5,85.5C 172.969,91.9309 163.969,97.5976 154.5,102.5C 148.984,94.1359 143.984,85.4692 139.5,76.5C 148.602,70.7249 157.935,65.3916 167.5,60.5 Z"/></g>
<g><path style="opacity:0.999" fill="#253b97" d="M 68.5,75.5 C 77.3569,80.7617 86.3569,85.7617 95.5,90.5C 91.5721,98.935 87.4055,107.268 83,115.5C 74.5637,128.038 66.897,141.038 60,154.5C 56.3013,159.027 52.468,163.361 48.5,167.5C 39.5101,163.34 30.8434,158.673 22.5,153.5C 37.5069,127.194 52.8402,101.194 68.5,75.5 Z"/></g>
<g><path style="opacity:0.999" fill="#23378e" d="M 181.5,85.5 C 183.895,88.5692 185.895,91.9025 187.5,95.5C 185.314,97.6339 182.981,99.8005 180.5,102C 173.908,106.121 167.241,109.954 160.5,113.5C 158.5,109.833 156.5,106.167 154.5,102.5C 163.969,97.5976 172.969,91.9309 181.5,85.5 Z"/></g>
<g><path style="opacity:1" fill="#263b99" d="M 245.5,99.5 C 248.833,99.5 252.167,99.5 255.5,99.5C 255.333,122.169 255.5,144.836 256,167.5C 257.32,172.317 260.486,174.651 265.5,174.5C 265.5,177.5 265.5,180.5 265.5,183.5C 255.423,184.23 248.923,179.896 246,170.5C 245.5,146.836 245.333,123.169 245.5,99.5 Z"/></g>
<g><path style="opacity:1" fill="#263b99" d="M 336.5,99.5 C 339.833,99.5 343.167,99.5 346.5,99.5C 346.334,108.839 346.5,118.173 347,127.5C 357.769,120.657 368.269,121.157 378.5,129C 388.278,141.292 390.111,154.792 384,169.5C 376.405,181.704 365.571,185.87 351.5,182C 349.336,181.086 347.336,179.919 345.5,178.5C 343.784,182.41 340.784,184.077 336.5,183.5C 336.5,155.5 336.5,127.5 336.5,99.5 Z M 353.5,131.5 C 371.35,132.206 378.85,141.539 376,159.5C 373.315,171.443 365.815,176.276 353.5,174C 351.254,172.961 349.087,171.794 347,170.5C 346.333,158.833 346.333,147.167 347,135.5C 349.314,134.267 351.481,132.933 353.5,131.5 Z"/></g>
<g><path style="opacity:1" fill="#1f317e" d="M 187.5,95.5 C 190.563,99.9072 193.23,104.574 195.5,109.5C 186.502,115.497 177.502,121.497 168.5,127.5C 165.833,122.833 163.167,118.167 160.5,113.5C 167.241,109.954 173.908,106.121 180.5,102C 182.981,99.8005 185.314,97.6339 187.5,95.5 Z"/></g>
<g><path style="opacity:1" fill="#253a96" d="M 177.5,146.5 C 173.872,151.298 170.039,155.965 166,160.5C 163.341,163.219 160.508,165.552 157.5,167.5C 137.469,146.306 116.469,125.806 94.5,106C 111.312,101.238 127.312,103.238 142.5,112C 155.363,122.364 167.03,133.864 177.5,146.5 Z"/></g>
<g><path style="opacity:1" fill="#1b296a" d="M 195.5,109.5 C 198.323,113.136 200.656,117.136 202.5,121.5C 193.675,127.747 184.675,133.747 175.5,139.5C 173.167,135.5 170.833,131.5 168.5,127.5C 177.502,121.497 186.502,115.497 195.5,109.5 Z"/></g>
<g><path style="opacity:1" fill="#263b99" d="M 290.5,122.5 C 296.232,122.283 301.899,122.783 307.5,124C 315.157,126.797 319.323,132.297 320,140.5C 320.333,151.167 320.667,161.833 321,172.5C 321.518,175.023 322.852,177.023 325,178.5C 325.494,180.134 325.66,181.801 325.5,183.5C 319.236,184.199 314.57,181.866 311.5,176.5C 302.728,183.767 293.061,185.267 282.5,181C 272.647,171.984 271.98,162.318 280.5,152C 289.156,145.435 298.823,143.268 309.5,145.5C 311.087,138.511 308.421,134.011 301.5,132C 294.052,130.652 287.552,132.486 282,137.5C 280.627,134.588 279.127,131.754 277.5,129C 281.398,125.769 285.731,123.602 290.5,122.5 Z M 297.5,152.5 C 301.833,152.5 306.167,152.5 310.5,152.5C 314.615,166.352 309.615,174.018 295.5,175.5C 285.755,174.677 282.588,169.677 286,160.5C 289.15,156.689 292.983,154.023 297.5,152.5 Z"/></g>
<g><path style="opacity:1" fill="#263b99" d="M 409.5,122.5 C 417.455,121.656 424.788,123.323 431.5,127.5C 430.48,130.605 429.313,133.605 428,136.5C 421.507,130.432 414.841,130.099 408,135.5C 407.041,139.421 408.208,142.588 411.5,145C 419.385,147.522 426.218,151.689 432,157.5C 435.57,164.365 435.237,171.032 431,177.5C 419.74,185.118 408.24,185.451 396.5,178.5C 397.765,175.204 398.932,171.871 400,168.5C 406.036,173.963 412.869,175.463 420.5,173C 425.103,166.96 424.103,161.96 417.5,158C 410.275,155.807 404.108,151.974 399,146.5C 394.043,134.751 397.543,126.751 409.5,122.5 Z"/></g>
<g><path style="opacity:1" fill="#162259" d="M 202.5,121.5 C 207.193,128.885 211.526,136.552 215.5,144.5C 215.719,145.675 215.386,146.675 214.5,147.5C 207.272,151.939 200.272,156.605 193.5,161.5C 188.479,158.479 184.479,154.479 181.5,149.5C 181.5,148.833 181.167,148.5 180.5,148.5C 180.5,147.833 180.167,147.5 179.5,147.5C 178.833,147.5 178.5,147.167 178.5,146.5C 178.938,146.565 179.272,146.399 179.5,146C 178.281,143.722 176.948,141.555 175.5,139.5C 184.675,133.747 193.675,127.747 202.5,121.5 Z"/></g>
<g><path style="opacity:1" fill="#131d4c" d="M 215.5,144.5 C 216.488,145.795 217.488,147.128 218.5,148.5C 217.794,158.202 212.46,163.202 202.5,163.5C 199.303,163.551 196.303,162.885 193.5,161.5C 200.272,156.605 207.272,151.939 214.5,147.5C 215.386,146.675 215.719,145.675 215.5,144.5 Z"/></g>
<g><path style="opacity:0.999" fill="#243890" d="M 22.5,153.5 C 30.8434,158.673 39.5101,163.34 48.5,167.5C 35.7632,181.374 20.0965,188.374 1.5,188.5C 8.3009,176.539 15.3009,164.872 22.5,153.5 Z"/></g>
<g><path style="opacity:1" fill="#263c9b" d="M 177.5,146.5 C 177.833,146.5 178.167,146.5 178.5,146.5C 178.5,147.167 178.833,147.5 179.5,147.5C 180.167,147.5 180.5,147.833 180.5,148.5C 181.167,148.5 181.5,148.833 181.5,149.5C 184.479,154.479 188.479,158.479 193.5,161.5C 196.303,162.885 199.303,163.551 202.5,163.5C 212.46,163.202 217.794,158.202 218.5,148.5C 223.941,167.048 217.941,180.215 200.5,188C 194.431,188.804 188.431,188.471 182.5,187C 172.648,182.412 164.315,175.912 157.5,167.5C 160.508,165.552 163.341,163.219 166,160.5C 170.039,155.965 173.872,151.298 177.5,146.5 Z"/></g>
</svg>
